<svg width="220" height="27" viewBox="0 0 220 27" fill="none" xmlns="http://www.w3.org/2000/svg">
<g clip-path="url(#clip0_4964_20986)">
<path d="M17.5534 20.8534C17.6033 20.8524 17.6529 20.8618 17.699 20.8808C17.7452 20.8998 17.787 20.9281 17.8218 20.9639L18.4526 21.6421C17.9936 22.133 17.489 22.5793 16.9458 22.9749C16.3912 23.3767 15.7935 23.7152 15.1638 23.9843C14.4789 24.2745 13.7652 24.4912 13.0346 24.6308C12.195 24.7893 11.342 24.8659 10.4875 24.8594C9.03065 24.8766 7.58518 24.6004 6.23724 24.0473C4.9787 23.5259 3.84678 22.7403 2.91797 21.7437C1.96314 20.701 1.23062 19.4748 0.765079 18.1399C0.23849 16.6305 -0.0204184 15.0407 2.38819e-05 13.4422C-0.0194277 11.8613 0.247814 10.29 0.788792 8.8044C1.27658 7.46767 2.02734 6.24226 2.99671 5.20058C3.95343 4.1893 5.11474 3.39358 6.40323 2.86649C7.79509 2.30153 9.28571 2.01998 10.7878 2.03835C12.1717 2.01313 13.5477 2.25402 14.8408 2.74793C16.0216 3.22315 17.1104 3.90101 18.058 4.75095L17.569 5.46053C17.5255 5.52367 17.4662 5.57435 17.3971 5.60754C17.3279 5.64074 17.2513 5.65529 17.1749 5.64977C16.9411 5.59443 16.7279 5.47406 16.5597 5.30259C16.1882 5.01396 15.7924 4.75798 15.3767 4.53754C14.7761 4.21944 14.1447 3.96311 13.4923 3.77248C12.6128 3.52415 11.7014 3.40731 10.7878 3.42575C9.5213 3.41069 8.26439 3.64653 7.08954 4.11966C5.99483 4.56493 5.01002 5.24289 4.20336 6.10657C3.36817 7.01981 2.72694 8.093 2.31846 9.2612C1.84927 10.6041 1.61969 12.0189 1.6402 13.4413C1.61724 14.8796 1.84961 16.3107 2.32651 17.6679C2.73783 18.8321 3.37864 19.9019 4.21096 20.814C5.00281 21.6658 5.96806 22.338 7.04167 22.7852C8.15858 23.2482 9.35728 23.4814 10.5663 23.4711C11.2817 23.4775 11.9964 23.4249 12.7031 23.3136C13.294 23.218 13.8729 23.0593 14.43 22.8403C14.945 22.6356 15.4367 22.3766 15.8966 22.0676C16.3711 21.7449 16.8199 21.3859 17.2388 20.9938C17.2877 20.9542 17.3407 20.9199 17.3968 20.8914C17.4453 20.8667 17.4989 20.8537 17.5534 20.8534ZM42.219 13.4413C42.2402 15.0386 41.9785 16.6271 41.4459 18.1332C40.9733 19.4673 40.2333 20.6909 39.2711 21.7289C38.3264 22.7285 37.1782 23.5136 35.9039 24.0312C34.5284 24.5856 33.0565 24.8618 31.5736 24.8437C30.0936 24.8622 28.6248 24.5862 27.2526 24.0317C25.9815 23.5126 24.8361 22.7276 23.8935 21.7294C22.9308 20.6915 22.1903 19.4679 21.7173 18.1336C21.1849 16.6275 20.9233 15.039 20.9446 13.4417C20.9241 11.8496 21.1857 10.2664 21.7173 8.76547C22.1903 7.43121 22.9308 6.20761 23.8935 5.16971C24.8371 4.17067 25.982 3.3832 27.2526 2.85933C28.6235 2.29963 30.0929 2.02076 31.5736 2.03925C33.056 2.02123 34.5274 2.29723 35.9026 2.85128C37.1788 3.36968 38.3279 4.1578 39.2711 5.16166C40.2329 6.20331 40.9734 7.42932 41.4477 8.76547C41.9788 10.2663 42.2399 11.8494 42.219 13.4413ZM40.5471 13.4413C40.5678 12.0167 40.3493 10.5987 39.9006 9.24643C39.5133 8.08081 38.8906 7.00722 38.0712 6.09225C37.2831 5.23044 36.3135 4.55439 35.2324 4.11295C34.0702 3.64453 32.8265 3.4114 31.5736 3.42709C30.3257 3.41235 29.0874 3.64548 27.9304 4.11295C26.8475 4.55555 25.8755 5.23135 25.0836 6.09225C24.2591 7.00629 23.6312 8.07984 23.2385 9.24643C22.7841 10.5975 22.5625 12.016 22.583 13.4413C22.561 14.8692 22.7823 16.2905 23.2376 17.6441C23.6316 18.8077 24.2595 19.8784 25.0827 20.7903C25.8736 21.6504 26.846 22.3238 27.9295 22.7615C29.0877 23.224 30.3256 23.4544 31.5727 23.4398C32.8249 23.4553 34.068 23.2249 35.2315 22.7615C36.3132 22.3249 37.2833 21.6513 38.0703 20.7903C38.8885 19.8775 39.5111 18.8068 39.8997 17.6441C40.3499 16.2895 40.5687 14.8686 40.5471 13.4413ZM66.159 13.4413C66.1828 15.0261 65.921 16.6022 65.3863 18.0942C64.9124 19.4042 64.1711 20.6013 63.2097 21.6095C62.2612 22.5852 61.1124 23.3438 59.8426 23.833C58.4608 24.3621 56.9913 24.6247 55.5117 24.607H47.3601V2.29114H55.5117C56.9906 2.27329 58.4594 2.53545 59.8408 3.0638C61.1106 3.55303 62.2594 4.31163 63.2079 5.28738C64.1695 6.29606 64.9108 7.49378 65.3845 8.8044C65.9193 10.2909 66.1819 11.8616 66.1599 13.4413H66.159ZM64.4875 13.4413C64.5101 12.0268 64.2914 10.6188 63.841 9.27775C63.4534 8.1311 62.8302 7.07819 62.0116 6.18666C61.2194 5.34316 60.2498 4.68607 59.1728 4.26283C58.0068 3.80988 56.7647 3.58509 55.514 3.60068H48.9846V23.298H55.5117C56.7625 23.3135 58.0046 23.0887 59.1706 22.6358C60.2476 22.2126 61.2172 21.5555 62.0093 20.712C62.828 19.8204 63.4512 18.7675 63.8388 17.6209C64.2908 16.2746 64.5102 14.8612 64.4875 13.4413ZM84.7369 23.2648L84.7055 24.607H71.3318V2.29114H84.7055V3.63334H72.9563V12.6525H82.7343V13.9616H72.9563V23.2648H84.7369Z" fill="#323330"/>
<path d="M142.502 13.3151C143.4 13.3274 144.296 13.2079 145.159 12.9603C145.882 12.7549 146.557 12.4092 147.146 11.9429C147.677 11.5152 148.101 10.9699 148.384 10.3502C148.676 9.69011 148.822 8.97448 148.81 8.25275C148.81 6.66507 148.292 5.48692 147.257 4.71828C146.221 3.94965 144.71 3.56637 142.723 3.56846H138.639V13.3151H142.502ZM152.406 24.607H151.019C150.865 24.6116 150.712 24.5819 150.571 24.5202C150.431 24.4447 150.314 24.333 150.232 24.1968L143.068 15.1445C142.991 15.0367 142.904 14.9364 142.808 14.8448C142.72 14.7618 142.619 14.695 142.508 14.6474C142.382 14.596 142.249 14.5615 142.114 14.545C141.928 14.5219 141.741 14.5113 141.554 14.5132H138.639V24.607H137.013V2.29113H142.723C145.288 2.29113 147.209 2.78789 148.487 3.78142C149.765 4.77495 150.404 6.23378 150.403 8.1579C150.413 8.95759 150.263 9.7512 149.962 10.492C149.671 11.1908 149.239 11.8218 148.692 12.3451C148.109 12.8964 147.43 13.3371 146.689 13.6457C145.846 13.9976 144.957 14.2261 144.049 14.324C144.312 14.4912 144.542 14.705 144.728 14.9548L152.406 24.607ZM175.873 13.4413C175.895 15.0385 175.634 16.6269 175.102 18.1331C174.629 19.4675 173.888 20.6911 172.925 21.7289C171.981 22.7285 170.832 23.5136 169.558 24.0312C168.183 24.5857 166.711 24.8618 165.227 24.8437C163.747 24.8622 162.279 24.5862 160.906 24.0317C159.635 23.5126 158.49 22.7276 157.547 21.7294C156.585 20.6913 155.844 19.4675 155.372 18.1331C154.839 16.627 154.578 15.0386 154.599 13.4413C154.578 11.8491 154.84 10.2659 155.372 8.76502C155.845 7.43075 156.585 6.20716 157.548 5.16926C158.491 4.17021 159.636 3.38275 160.907 2.85888C162.278 2.29918 163.747 2.02031 165.228 2.0388C166.71 2.02078 168.182 2.29678 169.557 2.85083C170.833 3.3694 171.981 4.15751 172.924 5.16121C173.886 6.20274 174.627 7.42876 175.102 8.76502C175.633 10.266 175.894 11.8492 175.873 13.4413ZM174.201 13.4413C174.222 12.0167 174.003 10.5987 173.554 9.24642C173.167 8.08081 172.544 7.00721 171.725 6.09225C170.937 5.23043 169.967 4.55439 168.886 4.11295C167.724 3.64452 166.48 3.4114 165.227 3.42708C163.98 3.41234 162.741 3.64547 161.584 4.11295C160.501 4.55555 159.529 5.23134 158.737 6.09225C157.913 7.00629 157.285 8.07984 156.892 9.24642C156.438 10.5976 156.217 12.016 156.238 13.4413C156.216 14.8692 156.437 16.2905 156.893 17.6441C157.287 18.8077 157.915 19.8784 158.738 20.7903C159.529 21.6504 160.501 22.3238 161.585 22.7615C162.743 23.2239 163.981 23.4544 165.228 23.4398C166.48 23.4553 167.723 23.2249 168.887 22.7615C169.968 22.3249 170.938 21.6513 171.725 20.7903C172.544 19.8775 173.166 18.8068 173.555 17.6441C174.005 16.2894 174.223 14.8686 174.201 13.4413H174.201ZM192.558 16.501L188.016 5.22653C187.836 4.79488 187.684 4.35244 187.559 3.90177C187.496 4.15411 187.428 4.39272 187.354 4.61761C187.286 4.82914 187.207 5.03701 187.117 5.2404L182.574 16.501H192.558ZM197.495 24.607H196.249C196.118 24.6124 195.989 24.5705 195.886 24.4889C195.789 24.406 195.713 24.3005 195.665 24.1816L193.048 17.6992H182.086L179.469 24.1811C179.425 24.2997 179.348 24.4035 179.248 24.4809C179.141 24.5658 179.007 24.6105 178.87 24.607H177.639L186.771 2.29113H188.363L197.495 24.607ZM219.999 13.4413C220.023 15.026 219.761 16.6022 219.226 18.0942C218.753 19.4041 218.012 20.6012 217.051 21.6095C216.102 22.5852 214.953 23.3438 213.684 23.833C212.302 24.3618 210.833 24.6245 209.355 24.607H201.201V2.29113H209.355C210.833 2.27328 212.302 2.53545 213.684 3.06379C214.953 3.55303 216.102 4.31163 217.051 5.28737C218.012 6.29606 218.754 7.49378 219.227 8.80439C219.761 10.2911 220.023 11.8618 220 13.4413H219.999ZM218.328 13.4413C218.35 12.0268 218.132 10.6188 217.681 9.27774C217.294 8.13109 216.67 7.07818 215.852 6.18665C215.06 5.34315 214.09 4.68607 213.013 4.26283C211.847 3.80988 210.605 3.58509 209.354 3.60067H202.825V23.2979H209.355C210.605 23.3135 211.847 23.0887 213.013 22.6358C214.09 22.2126 215.06 21.5555 215.852 20.712C216.671 19.8204 217.294 18.7675 217.682 17.6209C218.133 16.2745 218.351 14.8611 218.328 13.4413H218.328Z" fill="#323330"/>
<path d="M120.519 26.8441H112.018V24.8307C112.018 24.6528 111.948 24.4821 111.822 24.3562C111.696 24.2304 111.525 24.1596 111.347 24.1596H110.005C109.827 24.1596 109.656 24.2304 109.531 24.3562C109.405 24.4821 109.334 24.6528 109.334 24.8307V26.8441H100.833V0H109.334V2.0133C109.334 2.19129 109.405 2.36199 109.531 2.48784C109.656 2.6137 109.827 2.68441 110.005 2.68441H111.347C111.525 2.68441 111.696 2.6137 111.822 2.48784C111.948 2.36199 112.018 2.19129 112.018 2.0133V0H120.519V26.8441ZM110.005 15.2116C109.827 15.2116 109.656 15.2823 109.531 15.4082C109.405 15.534 109.334 15.7047 109.334 15.8827V19.9093C109.334 20.0873 109.405 20.258 109.531 20.3839C109.656 20.5097 109.827 20.5804 110.005 20.5804H111.347C111.525 20.5804 111.696 20.5097 111.822 20.3839C111.948 20.258 112.018 20.0873 112.018 19.9093V15.8827C112.018 15.7047 111.948 15.534 111.822 15.4082C111.696 15.2823 111.525 15.2116 111.347 15.2116H110.005ZM110.005 6.26361C109.827 6.26361 109.656 6.33432 109.531 6.46017C109.405 6.58603 109.334 6.75673 109.334 6.93471V10.9613C109.334 11.1393 109.405 11.31 109.531 11.4359C109.656 11.5617 109.827 11.6324 110.005 11.6324H111.347C111.525 11.6324 111.696 11.5617 111.822 11.4359C111.948 11.31 112.018 11.1393 112.018 10.9613V6.93471C112.018 6.75673 111.948 6.58603 111.822 6.46017C111.696 6.33432 111.525 6.26361 111.347 6.26361H110.005ZM99.4912 26.8069C98.8656 26.7012 98.2977 26.3773 97.8882 25.8927C97.4787 25.4081 97.2541 24.7941 97.2542 24.1596V2.68441C97.2541 2.04995 97.4787 1.43598 97.8882 0.951375C98.2977 0.466774 98.8656 0.142876 99.4912 0.0371344V26.8069ZM121.861 26.8069V0.0371344C122.487 0.142876 123.055 0.466774 123.464 0.951375C123.874 1.43598 124.098 2.04995 124.098 2.68441V24.1596C124.098 24.794 123.874 25.4079 123.464 25.8924C123.055 26.3769 122.487 26.7007 121.861 26.8065V26.8069Z" fill="#323330"/>
</g>
<defs>
<clipPath id="clip0_4964_20986">
<rect width="220" height="26.8441" fill="white"/>
</clipPath>
</defs>
</svg>
