<svg width="18" height="19" viewBox="0 0 18 19" fill="none" xmlns="http://www.w3.org/2000/svg">
<path d="M9 4.125C5.25 4.125 2.0475 6.4575 0.75 9.75C2.0475 13.0425 5.25 15.375 9 15.375C12.75 15.375 15.9525 13.0425 17.25 9.75C15.9525 6.4575 12.75 4.125 9 4.125ZM9 13.5C6.93 13.5 5.25 11.82 5.25 9.75C5.25 7.68 6.93 6 9 6C11.07 6 12.75 7.68 12.75 9.75C12.75 11.82 11.07 13.5 9 13.5ZM9 7.5C7.755 7.5 6.75 8.505 6.75 9.75C6.75 10.995 7.755 12 9 12C10.245 12 11.25 10.995 11.25 9.75C11.25 8.505 10.245 7.5 9 7.5Z" fill="black" fill-opacity="0.26"/>
</svg>
